<svg xmlns="http://www.w3.org/2000/svg" xmlns:lucid="lucid" width="595.91" height="580.69"><g lucid:page-tab-id="FTKyPISSD_2T"><path d="M20 236.35c0-3.32 2.7-6 6-6h148c3.3 0 7.82 1.98 10.05 4.42l46.9 51.15c2.23 2.44 2.23 6.4 0 8.85l-46.9 51.15c-2.23 2.44-6.74 4.43-10.05 4.43H26c-3.3 0-6-2.7-6-6zM575.9 344.35c0 3.3-2.67 6-6 6h-148c-3.3 0-7.8-2-10.04-4.43l-46.9-51.15c-2.23-2.44-2.23-6.4 0-8.85l46.9-51.15c2.24-2.44 6.74-4.42 10.05-4.42h148c3.33 0 6 2.68 6 6zM204.6 23.02c2.87-1.67 6.54-.7 8.2 2.16l74.56 127.86c1.66 2.86 2.22 7.75 1.24 10.9l-20.57 66.3c-1 3.15-4.4 5.15-7.65 4.44l-67.8-14.74c-3.24-.7-7.22-3.6-8.9-6.46L109.15 85.63c-1.67-2.87-.7-6.54 2.17-8.2zM391.3 557.67c-2.85 1.67-6.53.7-8.2-2.16l-74.54-127.85c-1.67-2.86-2.23-7.75-1.24-10.9l20.57-66.3c.97-3.15 4.4-5.15 7.63-4.44l67.8 14.75c3.25.7 7.23 3.6 8.9 6.46l74.54 127.87c1.67 2.86.7 6.53-2.16 8.2zM484.76 77.55c2.86 1.67 3.82 5.34 2.15 8.2l-74.62 127.8c-1.67 2.87-5.65 5.76-8.9 6.46l-67.8 14.7c-3.25.7-6.67-1.3-7.65-4.45l-20.53-66.3c-.98-3.16-.42-8.04 1.25-10.9l74.64-127.8c1.66-2.87 5.33-3.83 8.2-2.16zM111.16 503.14c-2.86-1.67-3.83-5.34-2.16-8.2l74.64-127.8c1.67-2.87 5.65-5.76 8.9-6.46l67.8-14.7c3.24-.7 6.66 1.3 7.64 4.46l20.53 66.3c1 3.16.43 8.04-1.24 10.9l-74.63 127.8c-1.67 2.87-5.35 3.83-8.2 2.16z" stroke="#25c2a0" stroke-width="3" fill="#25c2a0"/></g></svg>