<svg xmlns="http://www.w3.org/2000/svg" xmlnsLucid="lucid" width="200" height="200"><g lucidPage-tab-id="QcNylS-uAOm_" stroke-width="3"><path d="M420 220c0 110.46-89.54 200-200 200S20 330.46 20 220 109.54 20 220 20s200 89.54 200 200z" stroke="#25c2a0" fill="#25c2a0"/><path d="M366.67 220c0 81-65.67 146.67-146.67 146.67C139 366.67 73.33 301 73.33 220 73.33 139 139 73.33 220 73.33c81 0 146.67 65.67 146.67 146.67z" stroke="#19967d" fill="#19967d"/><path d="M221.97 135.67c-1.1-3.13-2.85-3.13-3.94 0L200.8 185.2c-1.08 3.14-4.65 5.73-7.96 5.8l-52.44 1.07c-3.3.06-3.85 1.74-1.2 3.74l41.78 31.7c2.64 2 4 6.2 3.04 9.37l-15.18 50.2c-.96 3.17.46 4.2 3.18 2.3l43.06-29.94c2.72-1.9 7.12-1.9 9.84 0l43.06 29.95c2.72 1.9 4.14.86 3.18-2.3l-15.18-50.2c-.96-3.18.4-7.38 3.04-9.38l41.8-31.7c2.63-2 2.1-3.67-1.22-3.73L247.16 191c-3.3-.07-6.88-2.66-7.97-5.8z" stroke="#25c2a0" fill="#25c2a0"/></g></svg>